inDegrees=no
num_controls=7
num_derivatives=13
num_iterations=95
num_multipliers=7
num_parameters=0
num_slacks=7
num_states=26
objective=4.882710
objective_accelerations=0.698002
objective_balance=0.024988
objective_effort=0.674816
objective_height=3.430751
objective_ligament=0.054155
solver_duration=1001.175096
status=Solve_Succeeded
success=true
DataType=double
version=3
OpenSimVersion=4.4-2022-07-23-0e9fedc
endheader
time	/jointset/ground_pelvis/pelvis_tilt/value	/jointset/ground_pelvis/pelvis_tx/value	/jointset/ground_pelvis/pelvis_ty/value	/jointset/hip_l/hip_flexion_l/value	/jointset/hip_l/hip_adduction_l/value	/jointset/hip_l/hip_rotation_l/value	/jointset/back/lumbar_extension/value	/jointset/patellofemoral_l/patellar_flexion_l/value	/jointset/knee_l/knee_flexion_l/value	/jointset/knee_l/knee_adduction_l/value	/jointset/knee_l/knee_rotation_l/value	/jointset/ankle_l/ankle_angle_l/value	/jointset/subtalar_l/subtalar_angle_l/value	/jointset/ground_pelvis/pelvis_tilt/speed	/jointset/ground_pelvis/pelvis_tx/speed	/jointset/ground_pelvis/pelvis_ty/speed	/jointset/hip_l/hip_flexion_l/speed	/jointset/hip_l/hip_adduction_l/speed	/jointset/hip_l/hip_rotation_l/speed	/jointset/back/lumbar_extension/speed	/jointset/patellofemoral_l/patellar_flexion_l/speed	/jointset/knee_l/knee_flexion_l/speed	/jointset/knee_l/knee_adduction_l/speed	/jointset/knee_l/knee_rotation_l/speed	/jointset/ankle_l/ankle_angle_l/speed	/jointset/subtalar_l/subtalar_angle_l/speed	/forceset/tau_hip_flexion_l	/forceset/tau_hip_adduction_l	/forceset/tau_hip_rotation_l	/forceset/tau_knee_flexion_l	/forceset/tau_ankle_angle_l	/forceset/tau_subtalar_angle_l	/forceset/tau_lumbar_extension	lambda_cid13_p0	lambda_cid13_p1	lambda_cid13_p2	lambda_cid13_p3	lambda_cid13_p4	lambda_cid13_p5	lambda_cid14_p0	/jointset/ground_pelvis/pelvis_tilt/accel	/jointset/ground_pelvis/pelvis_tx/accel	/jointset/ground_pelvis/pelvis_ty/accel	/jointset/hip_l/hip_flexion_l/accel	/jointset/hip_l/hip_adduction_l/accel	/jointset/hip_l/hip_rotation_l/accel	/jointset/back/lumbar_extension/accel	/jointset/patellofemoral_l/patellar_flexion_l/accel	/jointset/knee_l/knee_flexion_l/accel	/jointset/knee_l/knee_adduction_l/accel	/jointset/knee_l/knee_rotation_l/accel	/jointset/ankle_l/ankle_angle_l/accel	/jointset/subtalar_l/subtalar_angle_l/accel	gamma_cid13_p0	gamma_cid13_p1	gamma_cid13_p2	gamma_cid13_p3	gamma_cid13_p4	gamma_cid13_p5	gamma_cid14_p0
1	-0.08685702505893736	-0.07375840224937212	0.4195060015980893	2.090141695336423	-0.2949593964167077	0.1223688011831552	-0.9599133609843382	2.093094876690333	2.093094876690323	0.1745208216189858	-0.1745279762290534	0.2370785239142774	0.08844583416389389	0.02561890624942403	0.001599423587390698	0.06760140552897087	-0.2501777329773101	-0.01911526165811869	-0.0557029849904008	0.0004155653580548677	-0.1327936939884379	-0.1327936939884406	-0.005543987131991816	0.0007651599658061049	0.08691848926805971	0.01629542868089789	-0.3669285690623462	-0.04551756660689787	-0.06268581230533628	-0.439414000868357	0.12770425822462	0.0001606870623734202	0.4287420908614903	-15.87530253968406	12.02732121652033	-13.01456844696703	23.39948945404339	-848.9557968240224	-33.19907298988276	-0.02261992645122789	-0.9390078757181238	-0.6320718917085653	2.511214366388887	-7.325857239812409	-0.4393636564652899	-2.051784571514864	-0.005154936234317978	-6.833419135260214	-6.833419135260205	-0.8530730833758666	0.03322894968928335	1.029083151509384	-0.05570863307249454	-6.160619974112714e-09	4.84127855073805e-08	-1.923838672001317e-07	2.727260062375393e-08	-2.99049018605002e-08	-3.790980865218143e-08	9.061262705049572e-09
1.01	-0.08664765732719099	-0.07377401871402844	0.4203081221676903	2.087271934874188	-0.2951710700741595	0.1217125076945704	-0.959909486155509	2.091423896854448	2.091423896854435	0.1744200160200813	-0.1745177543005142	0.2379992952774735	0.08860786595273666	0.01628341644019737	-0.004716093582222957	0.09287123205482649	-0.3238891938360098	-0.02319738893730624	-0.07547224291249773	0.0003571610805419139	-0.2015281362516275	-0.2015281362516268	-0.01472482704777502	0.001248931482973788	0.09718976241328703	0.01611665385414765	-0.367937086935015	-0.0452569784284854	-0.06266462313065001	-0.441282079222693	0.1277428818684546	0.0004076303097432246	0.4299780472027849	-15.97256738873408	11.9536212270593	-13.0216854371915	23.45117747993815	-850.8263323046277	-33.59355521089166	-0.02274024814522972	-0.9265051456277718	-0.6302989130799688	2.542133411650172	-7.411018720124262	-0.389277355380673	-1.926984528637719	-0.00651907595014566	-6.912338075969649	-6.912338075969245	-0.9667313077841315	0.05135623506088684	1.019243407603836	0.001920728635725477	2.344974026535799e-09	3.915323260823731e-08	-2.485507694771218e-07	-3.31353183038986e-09	-5.937099208863838e-08	-6.687442236849815e-08	9.223131472209957e-09
1.02	-0.08653078161595047	-0.07385259180708022	0.4213643943257442	2.083661614161142	-0.2954228930227661	0.1208610240015903	-0.9599062625497562	2.089061796335108	2.089061796335124	0.1742241736482839	-0.1745036136604926	0.2390213981744249	0.08876828652053487	0.007120502146875168	-0.01099190209169695	0.1184317232196057	-0.3982897831437089	-0.02714511988596943	-0.09474102587778017	0.0002853207054742926	-0.2710178306796518	-0.2710178306796489	-0.02455134144769757	0.001548902293341227	0.1071847960214979	0.01597318447186043	-0.3689456048076444	-0.04499639024990096	-0.06264343395780328	-0.4431501575769748	0.1277815055123215	0.000654573557371161	0.4312140035441447	-16.05765406549453	11.88068031927337	-13.03222552608323	23.47021424908596	-852.5335528322549	-33.92890458458223	-0.02291868652914745	-0.9044927725373673	-0.6241301596804423	2.569347294173661	-7.463682929612405	-0.4124843903608916	-1.951689580151984	-0.007842155745451489	-6.984469568227055	-6.984469568227267	-0.982207980203976	-0.003531191671568491	0.9738352441065106	-0.0486475441803693	1.765411715048068e-08	1.576052399353718e-09	-3.726431159477337e-07	-3.306314358373598e-08	-9.574516987136007e-08	-3.348070517160732e-07	2.851735386306788e-08
1.03	-0.08650429759076793	-0.07399356453948444	0.422677673842568	2.079304064220838	-0.29571338824902	0.1198197354655568	-0.9599038440053316	2.086001314635786	2.086001314635776	0.1739266982946821	-0.1744874276760313	0.2401417881202171	0.08892748576463105	-0.001757037475609954	-0.01718004136697342	0.1442680011628879	-0.4733157768819864	-0.03091717679792223	-0.1134514028416883	0.0001933568302344895	-0.3411753302508225	-0.3411753302508235	-0.03501276487323111	0.001679731933410794	0.1168200018348654	0.01587901436767469	-0.3701074253913935	-0.04463626448143786	-0.06253481875989571	-0.4451335980648274	0.1280331948252194	0.001051002562613241	0.4326315012673572	-16.06085628389489	11.71994873900313	-13.01902473398548	23.25417095773756	-854.2975192733634	-34.42583517864195	-0.0231378149662727	-0.8693850723114261	-0.6127780987578243	2.597314538412885	-7.536393992521879	-0.353969347543953	-1.820923656147011	-0.0106282058818348	-7.045923030874823	-7.045923030875395	-1.0884205142074	0.01998950693680834	0.9473812859077378	0.01211646300845022	3.303268424507147e-08	-3.629008319024167e-08	-4.974285791958318e-07	-6.280421941156374e-08	-1.321898383434143e-07	-6.051781302027442e-07	4.800680435212691e-08
